# xmcd
#
# Track frame offsets:
#	150
#	21421
#	63801
#	84365
#	89949
#	116020
#	120919
#	131926
#	154712
#	180623
#	200018
#	224747
#	245294
#	259103
#	276438
#	292059
#	324065
#	344504
#
# Disc length: 4710 seconds
#
# Revision: 0
# Processed by: cddbd v1.5.2PL0 Copyright (c) Steve Scherf et al.
# Submitted via: audiograbber 1.83.01
#
DISCID=19126412
DTITLE=Mike Supanic - Auslese
DYEAR=2008
DGENRE=Comedian
TTITLE0=Waffennarr
TTITLE1=Elvis 
TTITLE2=Donauland
TTITLE3=Intro Jazzkonzert
TTITLE4=Jazzkonzert
TTITLE5=Deutschlehrer in Murau
TTITLE6=MUR-AUA
TTITLE7=Im Liegewagen
TTITLE8=Ku.Kux-Klan
TTITLE9=Truckersong
TTITLE10=LKH Graz
TTITLE11=Lagerhaus
TTITLE12=Irish-Song
TTITLE13=Im 10. Bezirk
TTITLE14=Benefiz für Schönbrunn
TTITLE15=Fussgängerzonen-Welttournee
TTITLE16=Schneckerl
TTITLE17=Wü no ned sterbn
EXTD=
EXTT0=
EXTT1=
EXTT2=
EXTT3=
EXTT4=
EXTT5=
EXTT6=
EXTT7=
EXTT8=
EXTT9=
EXTT10=
EXTT11=
EXTT12=
EXTT13=
EXTT14=
EXTT15=
EXTT16=
EXTT17=
PLAYORDER=
